<svg xmlns="http://www.w3.org/2000/svg" shape-rendering="geometricPrecision" text-rendering="geometricPrecision" image-rendering="optimizeQuality" fill-rule="evenodd" clip-rule="evenodd" viewBox="0 0 254 512.61"><path d="M164.205 113.634c-5.348 7.54-22.127 14.928-39.082 14.928-16.955 0-32.95-8.461-38.56-14.912v-.001c-24.175 3.358-40.292 16.43-51.333 36.208L9.887 201.115h31.818c5.485 0 7.85-8.16 10.205-12.514 7.567-13.986 11.257-30.391 25.1-36.437l.011-.046v65.205H50.95v-.495c0-4.611-3.773-8.384-8.384-8.384H8.384c-4.611 0-8.384 3.773-8.384 8.384v11.314c0 4.611 3.773 8.384 8.384 8.384h34.182c4.217 0 7.733-3.155 8.303-7.222h25.123v-4.477c0-1.975.365-3.869 1.029-5.619v.002c2.31-6.092 8.209-10.329 14.917-10.329h43.166v7.584H93.307c-4.905 0-8.918 4.013-8.918 8.919v55.785c0 4.905 4.013 8.919 8.918 8.919h65.483c4.905 0 8.918-4.014 8.918-8.919v-51.868h7.837v.003h25.81c.57 4.067 4.086 7.222 8.303 7.222h34.182c4.611 0 8.384-3.773 8.384-8.384v-11.314c-.018-1.427-.332-2.731-1.034-4.021l-.057-.101-.002-.004v-52.015a3.612 3.612 0 002.869-3.534v-18.934c0-3.388-2.779-6.173-6.173-6.173h-44.946c-10.008-9.775-22.763-16.202-38.676-18.412zm-25.296 23.524h108.418a2.577 2.577 0 012.563 2.564v16.43H136.346v-16.43a2.57 2.57 0 012.563-2.564zm107.611 24.606v47.122a8.321 8.321 0 00-2.68-.442h-34.182c-4.611 0-8.384 3.773-8.384 8.384v.495l-2.443-.001v-.045h-36.336a8.827 8.827 0 00-3.705-.812h-19.075v-54.701H246.52zm-79.144 251.321h36.948c8.511 0 8.524 12.859 0 12.879l-49.988.124v-98.645c0-10.688-8.745-19.433-19.433-19.433h-18.744c-10.688 0-19.433 8.745-19.433 19.433v98.521c0 .232-45.61 0-49.893 0-8.519 0-8.517-12.879 0-12.879h36.853V309.674c0-5.889 4.43-10.792 10.121-11.544h63.448c5.692.752 10.121 5.655 10.121 11.544v103.411zm-51.147-96.647h18.898c5.846 0 10.629 4.783 10.629 10.629v165.465c0 11.043-9.035 20.078-20.078 20.078h-.001c-11.042 0-20.078-9.035-20.078-20.078V327.067c0-5.846 4.783-10.629 10.63-10.629zm-40.237-82.36l-29.65 43.834c-4.367 6.05-4.624 12.67-4.624 21.61v90.507c-.183 10.027 1.876 14.25 11.273 14.935h22.686v-91.149c-.206-4.446.431-8.144 1.798-11.197 1.304-2.912 3.272-5.237 5.805-7.061-4.378-2.851-7.288-7.788-7.288-13.373v-48.106zm99.553.001l29.649 43.833c4.367 6.05 4.625 12.67 4.625 21.61v90.507c.183 10.027-1.876 14.25-11.273 14.935H175.86v-91.149c.206-4.446-.432-8.144-1.798-11.197-1.304-2.912-3.272-5.237-5.805-7.061 4.378-2.851 7.288-7.788 7.288-13.373v-48.105zm-49.496-3.712c12.653 0 22.91 10.257 22.91 22.909 0 12.654-10.257 22.911-22.91 22.911s-22.91-10.257-22.91-22.911c0-12.652 10.257-22.909 22.91-22.909zm43.225-145.17c-1.396 9.109-5.715 17.286-11.96 23.532-7.679 7.679-19.468 12.446-31.129 12.446-11.661 0-23.449-4.767-31.128-12.446-5.836-5.836-9.988-13.357-11.647-21.749-5.321-8.377-8.59-18.451-8.999-29.339 16.134-4.004 34.187-5.869 50.857-5.869 17.541 0 35.994 2.07 51.918 5.888-.383 10.118-3.236 19.535-7.912 27.537zm-49.853 2.879a2.41 2.41 0 011.682-4.516c1.643.61 3.306.82 4.981.772 1.731-.05 3.531-.389 5.361-.857a2.418 2.418 0 111.191 4.686c-2.097.536-4.225.926-6.42.99-2.251.064-4.515-.228-6.795-1.075zm-8.616-42.71c-12.179.719-24.375 2.444-36.26 5.278C76.308 27.44 91.079 8.31 110.805 2.118v43.248zm31.537-42.735c18.951 6.69 33 25.431 34.71 48.033-11.098-2.563-22.778-4.309-34.71-5.137V2.631zM125.797 0c2.672 0 6.998.279 9.794.809l-.046 44.348a246.965 246.965 0 00-16.755-.089L118.692.551A43.526 43.526 0 01125.797 0zm44.331 68.472c-1.967-.434-3.64-.699-5.852-.096v13.248l.432.095c2.917-3.758 4.454-8.333 5.42-13.247zm-89.335 0c1.967-.434 3.64-.699 5.851-.096v13.248l-.431.095c-2.917-3.758-4.454-8.333-5.42-13.247zm45.322-6.234c-10.722-.105-22.629 1.3-33.34 4.473V78.79c0 8.847 3.623 16.895 9.459 22.731 5.837 5.837 15.074 9.46 23.921 9.46s18.085-3.623 23.922-9.46c5.836-5.837 9.46-13.884 9.46-22.731V66.84c-10.774-2.876-22.71-4.496-33.422-4.602z"/></svg>